<svg width="14" height="14" viewBox="0 0 14 14" fill="none" xmlns="http://www.w3.org/2000/svg">
<path fill-rule="evenodd" clip-rule="evenodd" d="M1.64703 0.358647C1.29282 0.00993448 0.722985 0.0143905 0.374272 0.3686C0.0255595 0.72281 0.0300155 1.29264 0.384225 1.64135L5.71699 6.89136L0.384274 12.1413C0.0300646 12.49 0.025609 13.0599 0.374322 13.4141C0.723034 13.7683 1.29286 13.7727 1.64707 13.424L6.99985 8.15431L12.3526 13.424C12.7068 13.7727 13.2767 13.7683 13.6254 13.4141C13.9741 13.0599 13.9696 12.49 13.6154 12.1413L8.28271 6.89136L13.6155 1.64135C13.9697 1.29264 13.9741 0.72281 13.6254 0.3686C13.2767 0.0143905 12.7069 0.00993448 12.3527 0.358647L6.99985 5.6284L1.64703 0.358647Z" fill="#2A2B2E"/>
</svg>
