<svg width="17" height="17" viewBox="0 0 17 17" fill="none" xmlns="http://www.w3.org/2000/svg">
<path fill-rule="evenodd" clip-rule="evenodd" d="M4.10701 2.69292C3.71648 2.30239 3.08332 2.30239 2.6928 2.69292C2.30227 3.08344 2.30227 3.71661 2.6928 4.10713L7.08569 8.50003L2.6928 12.8929C2.30227 13.2834 2.30227 13.9166 2.6928 14.3071C3.08332 14.6977 3.71649 14.6977 4.10701 14.3071L8.4999 9.91424L12.8928 14.3071C13.2833 14.6977 13.9165 14.6977 14.307 14.3071C14.6975 13.9166 14.6975 13.2834 14.307 12.8929L9.91412 8.50002L14.307 4.10713C14.6975 3.71661 14.6975 3.08344 14.307 2.69292C13.9165 2.30239 13.2833 2.30239 12.8928 2.69292L8.4999 7.08581L4.10701 2.69292Z" fill="#2A2B2E"/>
</svg>
