<svg width="17" height="17" viewBox="0 0 17 17" fill="none" xmlns="http://www.w3.org/2000/svg">
<g clip-path="url(#clip0_90_1353)">
<path d="M12.0415 9.91668C12.0415 10.1045 11.9669 10.2847 11.834 10.4176C11.7012 10.5504 11.521 10.625 11.3332 10.625H5.6665C5.47864 10.625 5.29847 10.5504 5.16564 10.4176C5.0328 10.2847 4.95817 10.1045 4.95817 9.91668C4.95817 9.72882 5.0328 9.54865 5.16564 9.41582C5.29847 9.28298 5.47864 9.20835 5.6665 9.20835H11.3332C11.521 9.20835 11.7012 9.28298 11.834 9.41582C11.9669 9.54865 12.0415 9.72882 12.0415 9.91668ZM9.20817 12.0417H5.6665C5.47864 12.0417 5.29847 12.1163 5.16564 12.2491C5.0328 12.382 4.95817 12.5622 4.95817 12.75C4.95817 12.9379 5.0328 13.118 5.16564 13.2509C5.29847 13.3837 5.47864 13.4583 5.6665 13.4583H9.20817C9.39603 13.4583 9.5762 13.3837 9.70904 13.2509C9.84188 13.118 9.9165 12.9379 9.9165 12.75C9.9165 12.5622 9.84188 12.382 9.70904 12.2491C9.5762 12.1163 9.39603 12.0417 9.20817 12.0417ZM15.5832 7.42689V13.4583C15.582 14.3973 15.2085 15.2975 14.5446 15.9614C13.8807 16.6254 12.9805 16.9989 12.0415 17H4.95817C4.01921 16.9989 3.11902 16.6254 2.45508 15.9614C1.79113 15.2975 1.41763 14.3973 1.4165 13.4583V3.54168C1.41763 2.60272 1.79113 1.70254 2.45508 1.03859C3.11902 0.374641 4.01921 0.00114106 4.95817 1.63261e-05H8.1563C8.80769 -0.00166025 9.45296 0.125808 10.0548 0.37505C10.6566 0.624292 11.2031 0.990364 11.6625 1.4521L14.1304 3.92135C14.5924 4.38052 14.9587 4.9268 15.2081 5.52854C15.4574 6.13028 15.5849 6.77552 15.5832 7.42689ZM10.661 2.45368C10.438 2.23776 10.1877 2.052 9.9165 1.90118V4.95835C9.9165 5.14621 9.99113 5.32638 10.124 5.45922C10.2568 5.59205 10.437 5.66668 10.6248 5.66668H13.682C13.5311 5.39553 13.3451 5.14545 13.1288 4.92293L10.661 2.45368ZM14.1665 7.42689C14.1665 7.31002 14.1438 7.1981 14.1332 7.08335H10.6248C10.0613 7.08335 9.52075 6.85947 9.12223 6.46095C8.72372 6.06244 8.49984 5.52193 8.49984 4.95835V1.44997C8.38509 1.43935 8.27246 1.41668 8.1563 1.41668H4.95817C4.39459 1.41668 3.85408 1.64057 3.45557 2.03908C3.05705 2.4376 2.83317 2.9781 2.83317 3.54168V13.4583C2.83317 14.0219 3.05705 14.5624 3.45557 14.961C3.85408 15.3595 4.39459 15.5833 4.95817 15.5833H12.0415C12.6051 15.5833 13.1456 15.3595 13.5441 14.961C13.9426 14.5624 14.1665 14.0219 14.1665 13.4583V7.42689Z" fill="#6791FF"/>
</g>
<defs>
<clipPath id="clip0_90_1353">
<rect width="17" height="17" fill="white"/>
</clipPath>
</defs>
</svg>
