<svg width="24" height="24" viewBox="0 0 24 24" fill="none" xmlns="http://www.w3.org/2000/svg">
<path d="M21.389 10.4955C20.637 9.35293 19.6884 8.33229 18.5809 7.47413L20.9134 5.30991C21.0651 5.16413 21.1491 4.96888 21.1472 4.76622C21.1453 4.56356 21.0577 4.3697 20.9032 4.22639C20.7488 4.08308 20.5398 4.00179 20.3214 4.00003C20.103 3.99827 19.8926 4.07618 19.7355 4.21697L17.1989 6.57366C15.6265 5.70706 13.8288 5.25539 12 5.2674C6.84274 5.2674 3.90383 8.54311 2.61098 10.4955C2.21157 11.095 2 11.7858 2 12.4905C2 13.1952 2.21157 13.886 2.61098 14.4855C3.363 15.6281 4.31159 16.6487 5.4191 17.5069L3.08664 19.6711C3.00707 19.7424 2.94361 19.8277 2.89995 19.922C2.8563 20.0163 2.83332 20.1177 2.83235 20.2203C2.83139 20.323 2.85247 20.4248 2.89436 20.5197C2.93624 20.6147 2.9981 20.701 3.07631 20.7736C3.15453 20.8462 3.24753 20.9036 3.34991 20.9424C3.45229 20.9813 3.56198 21.0009 3.67259 21C3.78319 20.9991 3.8925 20.9778 3.99414 20.9372C4.09577 20.8967 4.18769 20.8379 4.26453 20.764L6.80692 18.405C8.3774 19.2715 10.1729 19.7239 12 19.7136C17.1573 19.7136 20.0962 16.4379 21.389 14.4855C21.7884 13.886 22 13.1952 22 12.4905C22 11.7858 21.7884 11.095 21.389 10.4955ZM4.03045 13.6762C3.79315 13.3199 3.66746 12.9093 3.66746 12.4905C3.66746 12.0717 3.79315 11.6611 4.03045 11.3048C5.14171 9.63063 7.65328 6.81327 12 6.81327C13.383 6.80608 14.7467 7.11537 15.9702 7.71375L14.2933 9.26967C13.4936 8.777 12.5347 8.55624 11.5795 8.64486C10.6243 8.73348 9.73156 9.12601 9.05276 9.75585C8.37396 10.3857 7.95091 11.214 7.85541 12.1003C7.7599 12.9867 7.99782 13.8763 8.52879 14.6184L6.6045 16.4039C5.58413 15.6385 4.7134 14.7158 4.03045 13.6762ZM14.4991 12.4905C14.4991 13.1055 14.2358 13.6953 13.7671 14.1302C13.2984 14.565 12.6628 14.8093 12 14.8093C11.6289 14.808 11.2629 14.7287 10.9296 14.5774L14.2492 11.4973C14.4122 11.8066 14.4976 12.1462 14.4991 12.4905ZM9.50093 12.4905C9.50093 11.8755 9.76422 11.2857 10.2329 10.8509C10.7016 10.416 11.3372 10.1717 12 10.1717C12.3711 10.173 12.7371 10.2523 13.0704 10.4036L9.75083 13.4837C9.5878 13.1744 9.50236 12.8348 9.50093 12.4905ZM19.9695 13.6762C18.8583 15.3504 16.3467 18.1677 12 18.1677C10.617 18.1749 9.25332 17.8656 8.0298 17.2673L9.70668 15.7113C10.5064 16.204 11.4653 16.4248 12.4205 16.3361C13.3757 16.2475 14.2684 15.855 14.9472 15.2252C15.626 14.5953 16.0491 13.767 16.1446 12.8807C16.2401 11.9943 16.0022 11.1047 15.4712 10.3626L17.3955 8.57712C18.4159 9.34254 19.2866 10.2653 19.9695 11.3048C20.2068 11.6611 20.3325 12.0717 20.3325 12.4905C20.3325 12.9093 20.2068 13.3199 19.9695 13.6762Z" fill="#AAA9AA"/>
</svg>
