<svg width="17" height="17" viewBox="0 0 17 17" fill="none" xmlns="http://www.w3.org/2000/svg">
<path fill-rule="evenodd" clip-rule="evenodd" d="M8.5 17C13.1944 17 17 13.1944 17 8.5C17 3.80558 13.1944 0 8.5 0C3.80558 0 0 3.80558 0 8.5C0 13.1944 3.80558 17 8.5 17ZM9.20833 7.79167H12.0417C12.2295 7.79167 12.4097 7.86629 12.5425 7.99913C12.6754 8.13197 12.75 8.31214 12.75 8.5C12.75 8.68786 12.6754 8.86803 12.5425 9.00087C12.4097 9.13371 12.2295 9.20833 12.0417 9.20833H9.20833V12.0417C9.20833 12.2295 9.13371 12.4097 9.00087 12.5425C8.86803 12.6754 8.68786 12.75 8.5 12.75C8.31214 12.75 8.13197 12.6754 7.99913 12.5425C7.86629 12.4097 7.79167 12.2295 7.79167 12.0417V9.20833H4.95833C4.77047 9.20833 4.5903 9.13371 4.45747 9.00087C4.32463 8.86803 4.25 8.68786 4.25 8.5C4.25 8.31214 4.32463 8.13197 4.45747 7.99913C4.5903 7.86629 4.77047 7.79167 4.95833 7.79167H7.79167V4.95833C7.79167 4.77047 7.86629 4.5903 7.99913 4.45747C8.13197 4.32463 8.31214 4.25 8.5 4.25C8.68786 4.25 8.86803 4.32463 9.00087 4.45747C9.13371 4.5903 9.20833 4.77047 9.20833 4.95833V7.79167Z" fill="#6791FF"/>
</svg>
