<svg width="13" height="15" viewBox="0 0 13 15" fill="none" xmlns="http://www.w3.org/2000/svg">
<path d="M10.0417 14.5834H2.95833C2.17593 14.5834 1.54167 13.9492 1.54167 13.1667V4.35841C1.54167 4.1375 1.36258 3.95841 1.14167 3.95841H0.525C0.304086 3.95841 0.125 3.77933 0.125 3.55841V2.94175C0.125 2.72083 0.304086 2.54175 0.525 2.54175H2.55833C2.77925 2.54175 2.95833 2.36266 2.95833 2.14175V1.83341C2.95833 1.05101 3.5926 0.416748 4.375 0.416748H8.625C9.4074 0.416748 10.0417 1.05101 10.0417 1.83341V2.14175C10.0417 2.36266 10.2208 2.54175 10.4417 2.54175H12.475C12.6959 2.54175 12.875 2.72083 12.875 2.94175V3.55841C12.875 3.77933 12.6959 3.95841 12.475 3.95841H11.8583C11.6374 3.95841 11.4583 4.1375 11.4583 4.35841V13.1667C11.4583 13.9492 10.8241 14.5834 10.0417 14.5834ZM3.35833 3.95841C3.13742 3.95841 2.95833 4.1375 2.95833 4.35841V12.7667C2.95833 12.9877 3.13742 13.1667 3.35833 13.1667H9.64167C9.86258 13.1667 10.0417 12.9877 10.0417 12.7667V4.35841C10.0417 4.1375 9.86258 3.95841 9.64167 3.95841H3.35833ZM4.72917 1.83341C4.53357 1.83341 4.375 1.99198 4.375 2.18758V2.18758C4.375 2.38318 4.53357 2.54175 4.72917 2.54175H8.27083C8.46643 2.54175 8.625 2.38318 8.625 2.18758V2.18758C8.625 1.99198 8.46643 1.83341 8.27083 1.83341H4.72917ZM8.625 11.3501C8.625 11.571 8.44591 11.7501 8.225 11.7501H7.60833C7.38742 11.7501 7.20833 11.571 7.20833 11.3501V5.77508C7.20833 5.55417 7.38742 5.37508 7.60833 5.37508H8.225C8.44591 5.37508 8.625 5.55417 8.625 5.77508V11.3501ZM5.79167 11.3501C5.79167 11.571 5.61258 11.7501 5.39167 11.7501H4.775C4.55409 11.7501 4.375 11.571 4.375 11.3501V5.77508C4.375 5.55417 4.55409 5.37508 4.775 5.37508H5.39167C5.61258 5.37508 5.79167 5.55417 5.79167 5.77508V11.3501Z" fill="#6791FF"/>
</svg>
