<svg width="17" height="17" viewBox="0 0 17 17" fill="none" xmlns="http://www.w3.org/2000/svg">
<g clip-path="url(#clip0_68_256)">
<path d="M9.20817 14.1667C10.1471 14.1656 11.0473 13.7921 11.7113 13.1281C12.3752 12.4642 12.7487 11.564 12.7498 10.625V4.42214C12.7509 4.04981 12.6781 3.68096 12.5356 3.33698C12.3931 2.993 12.1838 2.68073 11.9197 2.41826L10.3316 0.830179C10.0691 0.566094 9.75685 0.356731 9.41287 0.214227C9.06889 0.0717222 8.70004 -0.00108938 8.32771 1.23176e-05H4.95817C4.01921 0.00113705 3.11902 0.374637 2.45508 1.03858C1.79113 1.70253 1.41763 2.60272 1.4165 3.54168V10.625C1.41763 11.564 1.79113 12.4642 2.45508 13.1281C3.11902 13.7921 4.01921 14.1656 4.95817 14.1667H9.20817ZM2.83317 10.625V3.54168C2.83317 2.97809 3.05705 2.43759 3.45557 2.03908C3.85408 1.64056 4.39459 1.41668 4.95817 1.41668C4.95817 1.41668 8.44246 1.4266 8.49984 1.43368V2.83335C8.49984 3.20907 8.64909 3.5694 8.91477 3.83508C9.18045 4.10076 9.54078 4.25001 9.9165 4.25001H11.3162C11.3233 4.30739 11.3332 10.625 11.3332 10.625C11.3332 11.1886 11.1093 11.7291 10.7108 12.1276C10.3123 12.5261 9.77176 12.75 9.20817 12.75H4.95817C4.39459 12.75 3.85408 12.5261 3.45557 12.1276C3.05705 11.7291 2.83317 11.1886 2.83317 10.625V10.625ZM15.5832 5.66668V13.4583C15.582 14.3973 15.2085 15.2975 14.5446 15.9614C13.8807 16.6254 12.9805 16.9989 12.0415 17H5.6665C5.47864 17 5.29848 16.9254 5.16564 16.7925C5.0328 16.6597 4.95817 16.4795 4.95817 16.2917C4.95817 16.1038 5.0328 15.9236 5.16564 15.7908C5.29848 15.658 5.47864 15.5833 5.6665 15.5833H12.0415C12.6051 15.5833 13.1456 15.3595 13.5441 14.9609C13.9426 14.5624 14.1665 14.0219 14.1665 13.4583V5.66668C14.1665 5.47882 14.2411 5.29865 14.374 5.16581C14.5068 5.03297 14.687 4.95835 14.8748 4.95835C15.0627 4.95835 15.2429 5.03297 15.3757 5.16581C15.5085 5.29865 15.5832 5.47882 15.5832 5.66668Z" fill="#6791FF"/>
</g>
<defs>
<clipPath id="clip0_68_256">
<rect width="17" height="17" fill="white"/>
</clipPath>
</defs>
</svg>
