<svg width="17" height="17" viewBox="0 0 17 17" fill="none" xmlns="http://www.w3.org/2000/svg">
<g clip-path="url(#clip0_1_24)">
<path d="M16.7925 15.7909L12.5644 11.5628C13.7166 10.1537 14.2831 8.35556 14.1467 6.54044C14.0103 4.72531 13.1815 3.03204 11.8317 1.81087C10.4819 0.589693 8.71433 -0.0659532 6.89466 -0.0204556C5.07499 0.0250419 3.34241 0.768202 2.05531 2.05531C0.768202 3.34241 0.0250419 5.07499 -0.0204556 6.89466C-0.0659532 8.71433 0.589693 10.4819 1.81087 11.8317C3.03204 13.1815 4.72531 14.0103 6.54044 14.1467C8.35556 14.2831 10.1537 13.7166 11.5628 12.5644L15.7909 16.7925C15.9245 16.9215 16.1034 16.9929 16.2891 16.9913C16.4748 16.9897 16.6525 16.9152 16.7838 16.7838C16.9152 16.6525 16.9897 16.4748 16.9913 16.2891C16.9929 16.1034 16.9215 15.9245 16.7925 15.7909ZM7.08333 12.75C5.96257 12.75 4.86698 12.4177 3.9351 11.795C3.00322 11.1723 2.27691 10.2873 1.84801 9.25187C1.41912 8.21642 1.3069 7.07704 1.52555 5.97782C1.7442 4.87859 2.2839 3.86889 3.07639 3.07639C3.86889 2.2839 4.87859 1.7442 5.97782 1.52555C7.07704 1.3069 8.21642 1.41912 9.25187 1.84801C10.2873 2.27691 11.1723 3.00322 11.795 3.9351C12.4177 4.86698 12.75 5.96257 12.75 7.08333C12.7483 8.58571 12.1507 10.0261 11.0884 11.0884C10.0261 12.1507 8.58571 12.7483 7.08333 12.75Z" fill="#FFFDFD"/>
</g>
<defs>
<clipPath id="clip0_1_24">
<rect width="17" height="17" fill="white"/>
</clipPath>
</defs>
</svg>
