<svg width="24" height="24" viewBox="0 0 24 24" fill="none" xmlns="http://www.w3.org/2000/svg">
<path d="M21.389 10.0667C20.097 8.17453 17.1581 5 12 5C6.84191 5 3.903 8.17453 2.61098 10.0667C2.21157 10.6476 2 11.317 2 12C2 12.683 2.21157 13.3524 2.61098 13.9333C3.903 15.8255 6.84191 19 12 19C17.1581 19 20.097 15.8255 21.389 13.9333C21.7884 13.3524 22 12.683 22 12C22 11.317 21.7884 10.6476 21.389 10.0667ZM19.9687 13.1491C18.8591 14.7715 16.3476 17.5019 12 17.5019C7.65244 17.5019 5.14087 14.7715 4.03129 13.1491C3.79399 12.8038 3.6683 12.4059 3.6683 12C3.6683 11.5941 3.79399 11.1962 4.03129 10.8509C5.14087 9.22846 7.65244 6.49813 12 6.49813C16.3476 6.49813 18.8591 9.22547 19.9687 10.8509C20.206 11.1962 20.3317 11.5941 20.3317 12C20.3317 12.4059 20.206 12.8038 19.9687 13.1491Z" fill="#AAA9AA"/>
<path d="M12 8C11.2089 8 10.4355 8.2346 9.77772 8.67412C9.11992 9.11365 8.60723 9.73836 8.30448 10.4693C8.00173 11.2002 7.92252 12.0044 8.07686 12.7804C8.2312 13.5563 8.61216 14.269 9.17157 14.8284C9.73098 15.3878 10.4437 15.7688 11.2196 15.9231C11.9956 16.0775 12.7998 15.9983 13.5307 15.6955C14.2616 15.3928 14.8864 14.8801 15.3259 14.2223C15.7654 13.5645 16 12.7911 16 12C15.9987 10.9395 15.5769 9.92285 14.827 9.17298C14.0772 8.42311 13.0605 8.00127 12 8ZM12 14.4C11.5253 14.4 11.0613 14.2592 10.6666 13.9955C10.272 13.7318 9.96434 13.357 9.78269 12.9184C9.60104 12.4799 9.55351 11.9973 9.64612 11.5318C9.73872 11.0662 9.9673 10.6386 10.3029 10.3029C10.6386 9.9673 11.0662 9.73872 11.5318 9.64611C11.9973 9.55351 12.4799 9.60104 12.9184 9.78269C13.357 9.96434 13.7318 10.272 13.9955 10.6666C14.2592 11.0613 14.4 11.5253 14.4 12C14.4 12.6365 14.1471 13.247 13.6971 13.6971C13.247 14.1471 12.6365 14.4 12 14.4Z" fill="#AAA9AA"/>
</svg>
