<svg width="17" height="17" viewBox="0 0 17 17" fill="none" xmlns="http://www.w3.org/2000/svg">
<g clip-path="url(#clip0_1_21)">
<path d="M16.2917 15.5833H2.125C1.93714 15.5833 1.75697 15.5087 1.62413 15.3759C1.49129 15.243 1.41667 15.0629 1.41667 14.875V0.708333C1.41667 0.520472 1.34204 0.340304 1.2092 0.207466C1.07636 0.0746278 0.896195 0 0.708333 0C0.520472 0 0.340304 0.0746278 0.207466 0.207466C0.0746278 0.340304 0 0.520472 0 0.708333L0 14.875C0 15.4386 0.223883 15.9791 0.622398 16.3776C1.02091 16.7761 1.56141 17 2.125 17H16.2917C16.4795 17 16.6597 16.9254 16.7925 16.7925C16.9254 16.6597 17 16.4795 17 16.2917C17 16.1038 16.9254 15.9236 16.7925 15.7908C16.6597 15.658 16.4795 15.5833 16.2917 15.5833Z" fill="#FFFDFD"/>
<path d="M10.625 14.1667C10.8129 14.1667 10.993 14.092 11.1259 13.9592C11.2587 13.8264 11.3334 13.6462 11.3334 13.4583V8.50001C11.3334 8.31214 11.2587 8.13198 11.1259 7.99914C10.993 7.8663 10.8129 7.79167 10.625 7.79167C10.4372 7.79167 10.257 7.8663 10.1242 7.99914C9.99131 8.13198 9.91669 8.31214 9.91669 8.50001V13.4583C9.91669 13.6462 9.99131 13.8264 10.1242 13.9592C10.257 14.092 10.4372 14.1667 10.625 14.1667Z" fill="#FFFDFD"/>
<path d="M4.95833 14.1667C5.14619 14.1667 5.32636 14.092 5.4592 13.9592C5.59204 13.8264 5.66667 13.6462 5.66667 13.4583V8.50001C5.66667 8.31214 5.59204 8.13198 5.4592 7.99914C5.32636 7.8663 5.14619 7.79167 4.95833 7.79167C4.77047 7.79167 4.5903 7.8663 4.45747 7.99914C4.32463 8.13198 4.25 8.31214 4.25 8.50001V13.4583C4.25 13.6462 4.32463 13.8264 4.45747 13.9592C4.5903 14.092 4.77047 14.1667 4.95833 14.1667Z" fill="#FFFDFD"/>
<path d="M13.4583 14.1667C13.6462 14.1667 13.8264 14.092 13.9592 13.9592C14.092 13.8264 14.1667 13.6462 14.1667 13.4583V4.95833C14.1667 4.77047 14.092 4.5903 13.9592 4.45747C13.8264 4.32463 13.6462 4.25 13.4583 4.25C13.2705 4.25 13.0903 4.32463 12.9575 4.45747C12.8246 4.5903 12.75 4.77047 12.75 4.95833V13.4583C12.75 13.6462 12.8246 13.8264 12.9575 13.9592C13.0903 14.092 13.2705 14.1667 13.4583 14.1667Z" fill="#FFFDFD"/>
<path d="M7.79165 14.1667C7.97951 14.1667 8.15968 14.092 8.29251 13.9592C8.42535 13.8264 8.49998 13.6462 8.49998 13.4583V4.95833C8.49998 4.77047 8.42535 4.5903 8.29251 4.45747C8.15968 4.32463 7.97951 4.25 7.79165 4.25C7.60378 4.25 7.42362 4.32463 7.29078 4.45747C7.15794 4.5903 7.08331 4.77047 7.08331 4.95833V13.4583C7.08331 13.6462 7.15794 13.8264 7.29078 13.9592C7.42362 14.092 7.60378 14.1667 7.79165 14.1667Z" fill="#FFFDFD"/>
</g>
<defs>
<clipPath id="clip0_1_21">
<rect width="17" height="17" fill="white"/>
</clipPath>
</defs>
</svg>
